<svg xmlns="http://www.w3.org/2000/svg" id="a" data-name="Layer 1" width="614.536" height="482.226" viewBox="0 0 614.536 482.226"><g><path d="M411.637,137.418c-4.026,0-8.002,.221-11.913,.649,9.434,23.046,14.633,48.273,14.633,74.715,0,28.43-6.013,55.46-16.833,79.879,19.585,12.56,30.884,35.947,26.904,60.328,53.704-6.329,95.368-52.005,95.368-107.411,0-59.735-48.425-108.16-108.159-108.16" fill="#ffd600"></path><path d="M216.971,15.398c-109.013,0-197.382,88.372-197.382,197.384,0,109.011,88.369,197.382,197.382,197.382,37.301,0,72.183-10.347,101.938-28.326-10.856-13.023-16.17-30.535-13.117-48.565,1.956-11.57,7.094-21.8,14.371-29.955-10.569-16.708-16.685-36.51-16.685-57.74,0-55.71,42.117-101.582,96.246-107.511C370.27,66.099,299.539,15.398,216.971,15.398" fill="#43bbeb"></path><path d="M399.724,138.067c-54.129,5.929-96.246,51.801-96.246,107.511,0,21.23,6.116,41.032,16.685,57.74,11.18-12.531,27.394-20.152,44.843-20.152,3.331,0,6.714,.279,10.11,.856,8.235,1.394,15.795,4.399,22.409,8.639,10.82-24.419,16.833-51.449,16.833-79.879,0-26.442-5.199-51.669-14.633-74.715" fill="#219a38"></path><path d="M365.098,343.241c-13.305,15.094-28.876,28.137-46.189,38.597,8.861,10.632,21.419,18.272,36.133,20.763,3.396,.574,6.773,.852,10.106,.852,28.805,0,54.256-20.757,59.22-50.106,.021-.121,.04-.237,.061-.358-4.196,.494-8.463,.748-12.791,.749-16.662,0-32.44-3.767-46.539-10.496" fill="#ee8e1c"></path><path d="M397.524,292.661c-8.212,18.535-19.199,35.572-32.427,50.58,14.099,6.729,29.877,10.496,46.539,10.496,4.328,0,8.595-.255,12.791-.749,3.98-24.381-7.318-47.768-26.904-60.328" fill="#ea7a00"></path><path d="M320.163,303.318c-7.276,8.155-12.414,18.385-14.371,29.955-3.053,18.029,2.261,35.541,13.117,48.565,17.313-10.46,32.884-23.502,46.189-38.597-18.479-8.823-34.065-22.736-44.935-39.923" fill="#247030"></path><path d="M365.006,283.166c-17.449,0-33.663,7.621-44.843,20.152,10.87,17.187,26.456,31.1,44.935,39.923,13.228-15.008,24.214-32.046,32.427-50.58-6.614-4.24-14.174-7.246-22.409-8.639-3.396-.576-6.779-.856-10.11-.856" fill="#2a622b"></path><polygon points="69.294 186.576 77.851 186.576 90.974 129.984 81.279 129.984 83.33 120.741 113.224 120.741 111.056 129.984 101.359 129.984 88.121 186.69 111.514 186.69 114.138 175.623 124.065 175.623 119.388 195.82 67.129 195.82 69.294 186.576 69.294 186.576" fill="#fff"></polygon><path d="M137.301,131.696c0-3.651,2.965-6.62,6.62-6.62,3.535,0,6.616,2.969,6.616,6.62,0,3.651-3.081,6.618-6.616,6.618-3.655,0-6.62-2.967-6.62-6.618h0Zm-9.585,54.994c0-1.48,.344-3.648,.8-5.36l6.846-26.243h-9.243s2.169-8.443,2.169-8.443h19.284s-9.129,34.799-9.129,34.799c-.57,1.942-.8,3.882-.8,5.021,0,2.169,1.142,3.425,2.967,3.425,2.281,0,4.339-1.712,6.734-7.988l4.448,1.597c-2.963,9.813-7.758,13.123-13.804,13.123-6.622,0-10.271-3.994-10.271-9.931h0Z" fill="#fff"></path><path d="M159.549,155.087h-8.554s2.167-8.443,2.167-8.443h15.062s5.704,39.136,5.704,39.136c8.783-9.471,15.178-19.169,17.115-26.698-2.509-.916-4.792-3.083-4.792-6.504,0-3.766,2.969-6.848,6.848-6.848,4.333,0,7.526,3.31,7.526,8.785,0,10.385-10.721,26.815-26.698,42.676h-6.506s-7.872-42.104-7.872-42.104h0Z" fill="#fff"></path><path d="M216.031,131.696c0-3.651,2.969-6.62,6.616-6.62,3.542,0,6.62,2.969,6.62,6.62,0,3.651-3.078,6.618-6.62,6.618-3.647,0-6.616-2.967-6.616-6.618h0Zm-9.582,54.994c0-1.48,.338-3.648,.796-5.36l6.847-26.243h-9.238s2.161-8.443,2.161-8.443h19.284s-9.127,34.799-9.127,34.799c-.569,1.942-.798,3.882-.798,5.021,0,2.169,1.143,3.425,2.969,3.425,2.28,0,4.332-1.712,6.729-7.988l4.453,1.597c-2.965,9.813-7.759,13.123-13.808,13.123-6.619,0-10.268-3.994-10.268-9.931h0Z" fill="#fff"></path><path d="M264.41,186.805c0-1.595,.345-3.763,.802-5.591l4.219-14.83c.57-1.941,.8-3.424,.8-5.022,0-4.336-2.969-7.187-7.418-7.187-6.049,0-11.752,5.134-14.264,14.948l-6.618,26.697h-10.043s10.272-40.733,10.272-40.733h-9.129s2.167-8.443,2.167-8.443h17.575s-2.628,11.522-2.628,11.522c3.88-6.846,10.272-12.322,17.003-12.322,7.527,0,13.35,5.134,13.351,13.923,0,2.396-.458,5.133-1.256,7.985l-4.221,14.489c-.347,1.486-.687,3.083-.687,3.994,0,2.284,1.145,3.653,3.082,3.653,1.939,0,4.108-1.712,6.388-7.988l4.453,1.597c-2.623,8.9-7.303,13.123-13.351,13.123-6.733,0-10.498-4.111-10.498-9.815h0Z" fill="#fff"></path><path d="M327.512,166.268c0-7.301-4.792-11.753-11.871-11.753-9.581,0-16.882,9.13-16.882,20.311,0,7.303,4.793,11.864,11.635,11.864,9.815,0,17.118-9.811,17.118-20.422h0Zm-39.822,46.666c-2.169-2.163-2.852-3.989-2.852-6.386,0-3.995,2.736-6.734,6.275-6.734,3.538,0,6.047,2.854,6.047,6.164,0,1.024-.23,2.167-.685,2.967,1.484,.911,4.451,1.826,8.214,1.826,4.679,0,7.99-1.256,10.839-4.111,2.626-2.509,4.221-6.503,5.477-11.865l2.171-9.244c-4.223,5.936-10.157,9.7-16.886,9.7-11.072,0-17.918-7.875-17.918-19.739,0-15.973,11.07-29.781,26.017-29.781,8.446,0,13.463,5.704,15.175,11.18l3.08-10.494h9.24s-11.75,50.659-11.75,50.659c-1.482,6.62-3.538,11.527-7.186,15.29-4.338,4.225-10.043,6.275-18.031,6.275-6.844,0-14.26-2.737-17.227-5.707h0Z" fill="#fff"></path><polygon points="132.28 215.759 124.179 215.759 126.346 206.518 153.96 206.518 151.905 215.759 142.437 215.759 144.717 262.997 172.557 214.733 177.465 214.733 185.793 263.223 208.843 215.759 199.715 215.759 201.766 206.518 229.493 206.517 227.326 215.759 220.137 215.759 186.021 282.395 180.43 282.395 171.419 234.587 142.551 282.395 137.071 282.512 132.28 215.759 132.28 215.759" fill="#fff"></polygon><path d="M247.524,252.386c0-7.301-3.651-12.097-11.178-12.097-9.587,0-16.773,10.385-16.773,21.452,0,7.188,3.534,12.211,10.383,12.211,10.039,0,17.568-10.839,17.568-21.567h0Zm-38.334,10.5c0-16.775,11.635-31.38,25.899-31.38,7.416,0,13.008,5.364,14.721,11.637l3.193-10.954h9.353s-8.668,35.028-8.668,35.028c-.574,2.058-.913,3.882-.913,5.021,0,2.167,1.028,3.423,2.963,3.423,1.828,0,4.11-1.709,6.392-7.987l4.451,1.6c-2.967,9.811-8.103,13.119-13.578,13.119-5.82,0-9.47-3.993-9.47-9.924v-.574c-4.223,5.821-10.154,10.615-17.572,10.615-9.815,0-16.771-7.646-16.771-19.626h0Z" fill="#fff"></path><path d="M307.547,252.047c0-7.307-4.795-11.758-11.869-11.758-9.587,0-16.888,9.129-16.888,20.311,0,7.303,4.79,11.871,11.637,11.871,9.813,0,17.12-9.813,17.12-20.424h0Zm-39.824,46.665c-2.169-2.169-2.854-3.991-2.854-6.39,0-3.993,2.741-6.735,6.277-6.735,3.536,0,6.045,2.854,6.045,6.162,0,1.03-.226,2.171-.685,2.971,1.486,.909,4.451,1.822,8.216,1.822,4.679,0,7.987-1.256,10.841-4.11,2.623-2.51,4.221-6.501,5.477-11.863l2.167-9.244c-4.223,5.936-10.154,9.7-16.886,9.7-11.067,0-17.914-7.874-17.914-19.739,0-15.975,11.069-29.781,26.014-29.781,8.446,0,13.467,5.705,15.175,11.185l3.084-10.502h9.242s-11.754,50.661-11.754,50.661c-1.482,6.618-3.536,11.528-7.188,15.292-4.338,4.219-10.041,6.273-18.029,6.273-6.842,0-14.26-2.736-17.227-5.703h0Z" fill="#fff"></path><path d="M332.991,252.958h25.556c.456-1.369,.687-2.856,.687-4.225,0-5.132-3.427-8.898-10.5-8.898-7.073,0-13.123,5.362-15.743,13.123h0Zm-1.371,7.19v1.708c0,7.42,5.934,12.324,14.83,12.324,5.249,0,10.043-1.141,16.207-4.449l-1.941,9.355c-5.132,2.51-9.357,3.425-16.318,3.425-11.752,0-22.591-7.42-22.591-20.883,0-16.658,12.321-30.122,26.927-30.122,11.982,0,19.857,6.848,19.857,18.368,0,3.084-.572,6.505-1.832,10.274h-35.139Z" fill="#fff"></path><polygon points="189.782 348.091 194.405 348.091 201.591 317.006 196.411 317.006 197.079 314.222 223.371 314.222 221.422 322.521 218.357 322.521 219.638 317.006 204.766 317.006 201.591 330.766 213.734 330.766 213.121 333.551 200.978 333.551 197.58 348.091 212.453 348.091 213.734 342.575 216.799 342.575 214.904 350.876 189.113 350.876 189.782 348.091 189.782 348.091" fill="#fff"></polygon><path d="M226.263,330.042h-4.457s.668-2.563,.668-2.563h7.186s-1.503,5.626-1.503,5.626c2.284-3.677,5.18-6.07,8.354-6.07,3.622,0,5.961,2.171,6.072,5.848,2.284-3.564,5.349-5.848,8.412-5.848,3.677,0,6.181,2.617,6.181,6.07,0,1.172-.333,2.452-.666,3.675l-2.395,8.191c-.224,.779-.391,1.838-.391,2.282,0,1.114,.724,1.84,1.727,1.84,1.225,0,2.173-1.114,3.229-3.677l1.727,.557c-1.114,3.287-2.783,5.236-5.347,5.236-2.45,0-4.233-1.614-4.233-3.955,0-.613,.222-1.782,.444-2.561l2.395-8.301c.335-1.225,.557-2.173,.557-3.176,0-2.115-1.392-3.675-3.676-3.675-3.342,0-7.519,3.622-9.246,10.249l-2.896,11.086h-2.898s3.733-14.484,3.733-14.484c.335-1.225,.557-2.173,.557-3.176,0-2.115-1.447-3.675-3.733-3.675-3.285,0-7.742,3.675-9.357,10.194l-2.785,11.141h-2.896s5.236-20.834,5.236-20.834h0Z" fill="#fff"></path><path d="M284.078,337.229c0-4.623-2.395-7.577-6.405-7.577-5.571,0-9.972,6.572-9.972,12.033,0,4.066,2.619,7.018,6.964,7.018,5.513,0,9.413-5.682,9.413-11.475h0Zm-27.183,22.003h3.62s7.02-29.19,7.02-29.19h-4.457s.614-2.563,.614-2.563h7.184s-1.059,4.512-1.059,4.512c1.893-2.672,4.679-4.956,8.356-4.956,5.069,0,9.024,3.842,9.024,9.859,0,8.188-6.072,14.426-12.479,14.426-3.898,0-7.073-2.173-8.075-5.624l-3.178,13.536h5.127s-.613,2.561-.613,2.561h-11.697s.611-2.561,.611-2.561h0Z" fill="#fff"></path><path d="M290.648,347.254c0-.613,.222-1.503,.389-2.339l7.521-32.253h-4.401s.613-2.561,.613-2.561h7.297s-8.132,34.814-8.132,34.814c-.168,.837-.392,1.895-.392,2.339,0,1.114,.726,1.84,1.729,1.84,1.223,0,2.173-1.114,3.23-3.677l1.729,.557c-1.114,3.287-2.785,5.236-5.349,5.236-2.452,0-4.233-1.614-4.233-3.955h0Z" fill="#fff"></path><path d="M322.73,337.005c0-4.457-3.007-7.353-7.018-7.353-5.682,0-10.138,5.458-10.138,11.698,0,4.455,3.007,7.353,7.02,7.353,5.68,0,10.136-5.46,10.136-11.698h0Zm-20.108,4.29c0-7.408,5.737-14.26,13.257-14.26,6.183,0,9.803,4.566,9.803,10.025,0,7.408-5.737,14.26-13.257,14.26-6.183,0-9.803-4.568-9.803-10.025h0Z" fill="#fff"></path><path d="M321.055,359.232c0-1.283,.948-2.508,2.339-2.508,1.394,0,2.228,1.003,2.341,2.561h.278c1.338,0,4.345-2.115,9.526-8.467l-4.179-20.776h-4.344s.613-2.563,.613-2.563h6.35s3.733,20.554,3.733,20.554c4.457-5.793,8.913-12.087,9.692-15.818-1.114-.335-2.284-1.281-2.284-2.787,0-1.223,1.059-2.393,2.506-2.393,1.505,0,2.73,1.114,2.73,3.285,0,4.066-3.398,9.526-11.976,20.443-7.02,8.971-10.695,11.252-13.98,11.252-1.671,0-3.344-1.168-3.344-2.783h0Z" fill="#fff"></path><path d="M354.975,337.506h14.93c.28-.835,.444-1.782,.444-2.672,0-2.619-1.78-5.182-6.015-5.182-4.122,0-7.91,3.342-9.359,7.855h0Zm-.557,2.45c-.054,.502-.054,1.003-.054,1.505,0,4.847,3.953,7.297,7.91,7.297,2.73,0,4.679-.557,7.686-2.173l-.668,3.009c-2.452,1.223-4.455,1.725-7.52,1.725-5.404,0-10.307-3.509-10.307-9.803,0-7.91,6.185-14.482,13.092-14.482,5.291,0,8.521,3.342,8.521,8.299,0,1.447-.333,2.952-.946,4.623h-17.715Z" fill="#fff"></path><path d="M380.931,330.042h-4.455s.666-2.563,.666-2.563h7.186s-1.558,6.35-1.558,6.35c3.118-4.288,5.737-6.794,7.91-6.794,1.838,0,2.839,1.057,2.839,2.45,0,1.505-1.225,2.73-2.617,2.73-1.281,0-2.173-.781-2.45-1.895-1.895,1.114-5.961,4.79-7.297,10.305l-2.563,10.251h-2.898s5.238-20.834,5.238-20.834h0Z" fill="#fff"></path><polygon points="125.29 76.102 121.39 76.102 122.059 73.317 133.312 73.317 132.642 76.102 128.075 76.102 128.855 104.845 144.062 78.052 145.398 78.052 148.463 104.901 163.614 76.102 159.158 76.102 159.826 73.317 171.022 73.317 170.354 76.102 166.677 76.102 148.351 110.584 146.569 110.584 143.338 84.569 128.298 110.584 126.515 110.584 125.29 76.102 125.29 76.102" fill="#fff"></polygon><path d="M166.727,96.601h14.929c.278-.835,.446-1.782,.446-2.673,0-2.618-1.783-5.18-6.016-5.18-4.122,0-7.911,3.342-9.359,7.854h0Zm-.557,2.452c-.056,.501-.056,1.002-.056,1.504,0,4.846,3.956,7.296,7.911,7.296,2.729,0,4.679-.557,7.687-2.172l-.669,3.008c-2.452,1.225-4.457,1.728-7.521,1.728-5.403,0-10.304-3.51-10.304-9.804,0-7.91,6.182-14.483,13.09-14.483,5.292,0,8.523,3.342,8.523,8.3,0,1.449-.335,2.953-.947,4.624h-17.714Z" fill="#fff"></path><path d="M215.964,95.766c0-4.178-2.228-7.019-6.463-7.019-5.625,0-9.525,5.849-9.525,11.921,0,4.345,2.117,7.13,6.127,7.13,6.072,0,9.86-6.796,9.86-12.032h0Zm-19.107,4.957c0-7.965,5.793-14.594,12.533-14.594,4.233,0,7.018,2.34,7.688,6.072l1.392-5.905h2.896s-4.344,17.825-4.344,17.825c-.224,.891-.391,1.782-.391,2.227,0,1.114,.724,1.839,1.727,1.839,1.225,0,2.173-1.114,3.231-3.676l1.727,.557c-1.114,3.287-2.785,5.236-5.349,5.236-2.45,0-4.122-1.56-4.122-3.732v-.947c-2.062,2.729-4.958,4.791-8.355,4.791-5.069,0-8.634-3.676-8.634-9.693h0Z" fill="#fff"></path><path d="M230.777,89.137h-4.457s.668-2.562,.668-2.562h7.186s-1.56,6.349-1.56,6.349c3.12-4.289,5.737-6.796,7.91-6.796,1.838,0,2.841,1.058,2.841,2.451,0,1.504-1.225,2.729-2.619,2.729-1.281,0-2.171-.78-2.45-1.894-1.893,1.114-5.961,4.791-7.297,10.305l-2.561,10.249h-2.898s5.238-20.833,5.238-20.833h0Z" fill="#fff"></path><path d="M245.758,96.601h14.928c.279-.835,.446-1.782,.446-2.673,0-2.618-1.782-5.18-6.017-5.18-4.122,0-7.91,3.342-9.357,7.854h0Zm-.559,2.452c-.054,.501-.054,1.002-.054,1.504,0,4.846,3.955,7.296,7.91,7.296,2.73,0,4.679-.557,7.688-2.172l-.67,3.008c-2.45,1.225-4.455,1.728-7.519,1.728-5.404,0-10.305-3.51-10.305-9.804,0-7.91,6.183-14.483,13.09-14.483,5.291,0,8.523,3.342,8.523,8.3,0,1.449-.333,2.953-.948,4.624h-17.715Z" fill="#fff"></path><path d="M294.995,95.766c0-4.178-2.228-7.019-6.461-7.019-5.626,0-9.526,5.849-9.526,11.921,0,4.345,2.117,7.13,6.128,7.13,6.072,0,9.859-6.796,9.859-12.032h0Zm-19.105,4.957c0-7.965,5.793-14.594,12.533-14.594,4.235,0,7.02,2.34,7.686,6.072l1.394-5.905h2.895s-4.344,17.825-4.344,17.825c-.222,.891-.389,1.782-.389,2.227,0,1.114,.724,1.839,1.725,1.839,1.227,0,2.175-1.114,3.233-3.676l1.725,.557c-1.114,3.287-2.783,5.236-5.347,5.236-2.45,0-4.122-1.56-4.122-3.732v-.947c-2.062,2.729-4.958,4.791-8.356,4.791-5.069,0-8.634-3.676-8.634-9.693h0Z" fill="#fff"></path></g><path d="M594.321,297.566c-5.449-3.16-14.164-4.126-19.727-2.169-15.778,5.552-28.653,21.21-41.453,31.73-12.491,10.266-23.907,21.463-34.47,33.703-15.533,18-31.175,35.341-41.122,56.579-3.798-2.738-4.889-8.72-8.95-11.077-5.123-2.973-14.096-4.037-18.956-1.303-3.857,2.17-6.746,12.742-1.797,15.958,9.27,6.025,17.529,13.837,24.501,22.404,6.118,7.517,22.06,2.339,25.504-5.238,12.255-26.958,29.675-52.447,49.277-74.614,9.357-10.581,18.993-21.133,29.884-30.125,5.851-4.83,12.108-9.275,18.341-13.601,5.775-4.007,14.445-5.845,19.559-10.898,3.29-3.251,4.35-8.485-.59-11.349Z" fill="#21a84a"></path></svg>